<svg height="142" viewBox="0 0 146 142" width="146" xmlns="http://www.w3.org/2000/svg"><path d="m62.0566406 124.687012c-2.5133463 0-5.3767903 0-8.590332 0-4.8203125 0-21.8730469-3.973633-21.8730469-21.26709 0-11.5289715 0-27.8577475 0-48.9863282 0-4.6875.8172201-8.2848308 2.4516602-10.7919922 2.4516601-3.7607422 7.4428711-10.5864258 17.9980468-10.5864258 10.5551758 0 16.4042969 6.4643554 18.7553711 10.5864258 1.5673829 2.7480468 2.3510743 6.3453776 2.3510743 10.7919922v90.5498042c0 1.903912-.0282231 5.299681 1.5048828 9.498536 1.5331059 4.198854 5.0844726 7.650878 7.2827148 9.022461 2.1982422 1.371582 9.6573028 2.584472 14.8835011 2.584472h53.6340772c2.992513-.061849 5.794108-.92334 8.404785-2.584472 3.916016-2.4917 9.17334-8.425293 9.17334-17.691895s-5.264649-15.42041-9.17334-18.272949c-2.605794-1.901693-5.407389-2.852539-8.404785-2.852539h-66.3193361" fill="none" stroke="#fff" stroke-width="8" transform="translate(-27 -29)"/></svg>